<?xml version="1.0" encoding="utf-8"?>
<svg version="1.1" xmlns="http://www.w3.org/2000/svg" xmlns:xlink="http://www.w3.org/1999/xlink" x="0px" y="0px"
	 viewBox="60 60 300 68" xml:space="preserve">
<g fill="#111111">
	<path d="M94.6,117.6L72.5,71.5h10c0,0,15.8,33.1,16.2,34.7h0.2c0.4-1.7,16.2-34.7,16.2-34.7H125l-22.1,46.2H94.6z"/>
	<path d="M167.8,98.1H132c1.3,7.5,6.8,12.2,13.9,12.2c5.8,0,9.7-2.3,11.6-6.5h9.3c-2.8,8.8-10.7,14.8-20.9,14.8
		c-13.4,0-23.3-9.8-23.3-24.1c0-14.2,9.7-24.1,23.3-24.1c12.1,0,22.1,10.4,22.1,24.1C168,95.9,168,96.7,167.8,98.1z M132.1,90.6
		h26.5c-0.6-6.3-5.7-11.8-12.7-11.8C138.8,78.7,133.5,83.4,132.1,90.6z"/>
	<path d="M216.9,98.1h-35.8c1.3,7.5,6.8,12.2,13.9,12.2c5.8,0,9.7-2.3,11.6-6.5h9.3c-2.8,8.8-10.7,14.8-20.9,14.8
		c-13.4,0-23.3-9.8-23.3-24.1c0-14.2,9.7-24.1,23.3-24.1c12.1,0,22.1,10.4,22.1,24.1C217.1,95.9,217.1,96.7,216.9,98.1z
		 M181.2,90.6h26.5c-0.6-6.3-5.7-11.8-12.7-11.8C187.9,78.7,182.6,83.4,181.2,90.6z"/>
	<path d="M267.1,94.5v23.1h-8l-0.8-7.2c-3.5,5.3-9.8,8.2-15.4,8.2c-12.6,0-22.2-10.1-22.2-24.1
		c0-13.8,10.3-24.1,23.4-24.1C256.2,70.5,267.1,79.1,267.1,94.5z M258,94.5c0-10.2-6.7-15.8-13.9-15.8c-7.9,0-14.3,6.3-14.3,15.8
		c0,9.5,5.9,15.8,14.3,15.8C251.2,110.3,258,104.4,258,94.5z"/>
	<path d="M273.2,117.6V90.3c0-11.5,7.4-19.8,18.9-19.8c9.3,0,14.2,6.2,14.9,8.4h0.2c0.7-2.2,5.6-8.4,14.9-8.4
		c11.5,0,18.9,8.3,18.9,19.8v27.3H332V91c0-7.5-3.4-12-10.2-12c-6.8,0-10.2,4.5-10.2,12.2v26.5h-9.1V91.2
		c0-7.7-3.4-12.2-10.2-12.2s-10.2,4.5-10.2,12v26.6H273.2z"/>
</g>
</svg>
